<svg width="77" height="32" viewBox="0 0 77 32" fill="none" xmlns="http://www.w3.org/2000/svg">
<g clip-path="url(#clip0)">
<path d="M61.0498 3.29062H61.1356C61.1356 1.36201 61.6117 -0.00116491 62.5638 -0.798913C63.516 -1.59666 64.9213 -1.99697 66.7799 -1.99982C67.9777 -2.00825 69.1581 -1.71315 70.2111 -1.14203C71.2352 -0.593118 72.0923 0.2218 72.6922 1.2169C73.3008 2.21564 73.6173 3.36494 73.6058 4.53442C73.6058 5.03337 73.5343 6.08488 73.3913 7.68896C73.3913 8.22222 73.5407 8.61537 73.8395 8.86842C74.1383 9.12147 74.7159 9.26944 75.5723 9.31233C75.8597 9.25051 76.1533 9.22173 76.4472 9.22655V10.0071C76.1491 10.05 75.8253 10.0843 75.4758 10.1079C75.1262 10.1315 74.8517 10.1615 74.6523 10.1894C74.072 10.1648 73.4939 10.1024 72.9217 10.0029C72.4158 9.91398 71.9148 9.79946 71.4205 9.65974L70.1918 9.31233C69.5413 9.6626 69.1738 10.0257 69.0895 10.4017C69.1753 11.0093 69.7743 11.5812 70.8866 12.1173C74.0718 13.6899 75.6645 15.7494 75.6645 18.2956C75.6412 19.75 75.2494 21.1747 74.5258 22.4366C73.7212 23.8784 72.6669 25.1658 71.412 26.2387C70.0958 27.3912 68.599 28.3193 66.9815 28.9858C65.4064 29.6494 63.7154 29.9941 62.0063 30.0002C59.5129 30.0002 57.1754 29.0523 54.9938 27.1566L51.6827 24.2551C50.9176 23.5735 50.0994 22.9539 49.2358 22.4023C48.4738 21.9233 47.7719 21.6846 47.13 21.686C45.8261 21.686 44.8647 22.854 44.2456 25.1901L43.4479 25.0207C44.2799 21.9355 45.5552 19.9525 47.2736 19.0719C49.0323 18.1821 50.9793 17.729 52.9501 17.7509C53.4405 16.4342 53.6856 13.9537 53.6856 10.3095C53.7046 8.33242 53.5547 6.35732 53.2375 4.40575C52.9401 2.68159 52.4626 1.52642 51.8049 0.940264C50.9214 0.00812793 49.9028 -0.458655 48.749 -0.460085C48.0482 -0.472778 47.3673 -0.226964 46.8362 0.230439C46.5773 0.440036 46.3641 0.700347 46.2096 0.995376C46.0551 1.2904 45.9625 1.61391 45.9376 1.94603C46.0577 3.15981 46.8483 4.12339 48.3094 4.83679C50.6398 6.03341 51.8049 7.72613 51.8049 9.91493C51.8302 11.1974 51.4078 12.4486 50.6105 13.4533C49.8018 14.4642 48.7453 15.2488 47.5438 15.7308C46.2977 16.2513 44.9653 16.5342 43.6151 16.565V15.7737C44.6221 15.7954 45.6238 15.6236 46.566 15.2676C47.4037 14.9287 47.8226 14.4705 47.8226 13.893C47.8226 13.068 47.0778 12.2524 45.5881 11.4461C43.3235 10.228 42.1555 8.5782 42.084 6.49662C42.2073 4.88476 42.7975 3.34372 43.7824 2.06183C44.7723 0.766359 46.0665 -0.264875 47.5503 -0.940449C49.0448 -1.64094 50.6755 -2.00268 52.326 -1.99982C54.1574 -1.99982 55.6486 -1.79681 56.7994 -1.39079C57.8409 -1.06069 58.7743 -0.456224 59.5015 0.359109C60.2024 1.22687 60.7283 2.22246 61.0498 3.29062ZM53.4733 17.7402V17.8367C54.9441 17.9628 56.3629 18.4409 57.6101 19.2306C59.2138 20.2618 60.7307 21.4223 62.1456 22.7003C63.8469 24.1929 65.1208 25.2437 65.9671 25.8527C66.719 26.4276 67.6292 26.7577 68.5748 26.7985C69.44 26.6927 70.2536 26.3296 70.9102 25.7562C71.6321 25.1529 71.9938 24.4495 71.9953 23.6461C71.9967 22.8426 71.6243 22.1049 70.878 21.433C69.837 20.5311 68.7319 19.7062 67.5712 18.9647C66.6233 18.2799 65.9335 17.7559 65.5018 17.3927C65.0485 17.0022 64.6667 16.5356 64.3738 16.0138C64.0445 15.4178 63.8788 14.7453 63.8934 14.0645C63.9779 13.1047 64.3518 12.1931 64.9656 11.4504C65.6061 10.6326 67.1301 9.79484 69.5377 8.93705C69.0588 8.88129 68.5312 8.59536 67.9551 8.07925C67.3109 7.46204 66.8076 6.71298 66.4796 5.8833C66.0487 4.82477 65.8392 3.68913 65.8642 2.54648C65.8642 0.534956 65.2373 -0.470807 63.9835 -0.470807C62.5795 -0.470807 61.8776 0.91596 61.8776 3.68949C61.8776 3.78171 61.8776 3.93182 61.899 4.13769C61.9205 4.34356 61.9205 4.50225 61.9205 4.60733V6.96627C61.9205 8.99638 61.7017 10.5983 61.2643 11.7721C60.7774 13.0059 59.9412 14.0709 58.8581 14.8365C57.6901 15.7115 55.8952 16.6793 53.4733 17.7402Z" fill="#F5F5F5"/>
<path d="M7.88956 20.3972L10.6388 23.7469C10.5787 23.0435 10.528 21.5323 10.4865 19.2134C10.4451 16.8945 10.3893 14.8766 10.3193 13.1596C10.2492 11.444 10.0991 9.73982 9.86892 8.0471C9.63874 6.35439 9.30063 5.06341 8.85458 4.17417C7.95532 2.29417 6.68078 1.35417 5.03096 1.35417C4.35273 1.33941 3.68836 1.54731 3.13952 1.94605C2.87875 2.13309 2.66032 2.373 2.49848 2.65013C2.33664 2.92725 2.23502 3.23538 2.20024 3.55441C2.30604 4.92688 3.33038 5.97839 5.27329 6.70895C6.34205 7.09883 7.25152 7.83183 7.85954 8.79338C8.46285 9.74697 8.76379 10.9078 8.76236 12.276C8.49645 14.1017 7.83523 15.4906 6.77871 16.4428C5.7222 17.3949 3.91869 17.9868 1.36818 18.2184V17.47C2.4082 17.4945 3.44226 17.3062 4.40691 16.9167C5.26471 16.5478 5.69361 16.1232 5.69361 15.6429C5.69361 14.928 5.09887 14.3605 3.90939 13.9401C2.50261 13.3311 1.50185 12.5248 0.907117 11.5212C0.31238 10.5175 0.0100076 9.28876 0 7.8348C0.0970132 6.23907 0.549057 4.68512 1.32315 3.28635C2.07063 1.93177 3.16921 0.803562 4.50342 0.0202982C5.92283 -0.799645 7.5395 -1.21568 9.17839 -1.18276C10.5929 -1.126 11.9741 -0.736614 13.21 -0.0461808C14.511 0.668647 15.5504 1.78449 16.3281 3.30136H16.3688C16.539 1.81309 17.1187 0.693666 18.108 -0.0569031C19.0973 -0.807473 20.4141 -1.18276 22.0582 -1.18276C22.9551 -1.14075 23.8414 -0.969574 24.6894 -0.674515C25.489 -0.383415 26.2193 0.0708297 26.8339 0.659355C27.5436 1.35037 28.1245 2.16222 28.5495 3.05689H28.631C28.9827 1.61865 29.6975 0.55213 30.7755 -0.142683C31.8833 -0.842296 33.1711 -1.20374 34.4812 -1.18276C35.7276 -1.21047 36.9455 -0.807534 37.9295 -0.0418918C38.8959 0.718685 39.4778 1.80594 39.6751 3.21987C39.7294 3.74741 39.7559 4.57876 39.7544 5.7139C39.7711 6.35436 39.8429 6.99219 39.9689 7.62035C40.0699 8.05104 40.3217 8.43138 40.6787 8.69259C41.049 8.97853 41.6273 9.12149 42.4136 9.12149V9.87206C41.2141 9.87206 40.3013 10.0415 39.6751 10.3803C39.0999 10.6586 38.6505 11.1432 38.4163 11.7378C38.182 12.4487 38.059 13.1916 38.0517 13.9401C38.1661 15.6557 38.2233 16.886 38.2233 17.6308C38.2233 21.864 38.9267 24.0085 40.3335 24.0643C41.0154 23.9828 41.766 23.5975 42.5852 22.9084L42.8275 23.5667L35.5169 29.1767C34.5588 28.3814 33.67 27.5061 32.8599 26.5604C32.343 25.9529 31.9549 25.2466 31.7191 24.4846C31.5087 23.6821 31.3992 22.8566 31.3931 22.027C31.3702 21.0663 31.3481 19.7946 31.3266 18.212C31.3266 16.4277 31.5854 14.9981 32.1029 13.923C32.6205 12.8479 33.2681 12.0687 34.0458 11.5855C35.0385 11.0045 36.1085 10.5669 37.224 10.2859C38.5664 9.91138 39.2719 9.71051 39.3406 9.68334V9.60185C37.6836 9.60185 36.4069 9.39598 35.5105 8.98424C34.6141 8.5725 34.0058 8.04138 33.6856 7.39089C33.358 6.71844 33.1566 5.99156 33.0915 5.24641C33.0186 4.45938 32.9393 3.56084 32.8599 2.55508C32.8171 2.09145 32.6521 1.64747 32.3817 1.26839C32.153 0.992465 31.7712 0.853788 31.2366 0.852358C29.9985 0.852358 29.2922 2.06757 29.1178 4.49798C29.1178 5.35578 29.1328 6.44374 29.1628 7.76189C29.1929 9.08003 29.2079 10.1787 29.2079 11.058C29.219 12.2928 29.1221 13.5263 28.9184 14.7443C28.7039 15.895 28.3338 17.0111 27.8182 18.0618C27.1776 19.3368 26.3856 20.5299 25.4593 21.6153L19.1481 29.1831L13.5724 24.2851L10.8811 28.6856L10.4672 28.1881L17.0379 19.7517L22.0582 24.1629C22.031 23.4481 21.9702 21.7375 21.8759 19.0312C21.7815 16.3248 21.71 14.3791 21.6614 13.1939C21.6157 12.0073 21.5549 10.8242 21.4792 9.64474C21.4034 8.46528 21.3055 7.15714 21.1854 5.72034C21.0984 4.63933 20.7966 3.58655 20.2975 2.6237C19.8358 1.78163 19.2596 1.3606 18.5691 1.3606C17.677 1.3606 17.1938 2.06685 17.1194 3.47935C17.1874 3.82018 17.2147 4.16787 17.2009 4.51514C17.2738 5.15848 17.4018 5.98911 17.5848 7.00703C17.7678 8.02494 17.9014 8.85986 17.9858 9.51179C18.0785 10.3061 18.1208 11.1054 18.1123 11.905C18.1123 13.542 17.9165 14.8523 17.5247 15.8359C17.133 16.8195 16.2645 18.1819 14.9192 19.9233L7.64723 29.1831L4.28897 24.6518L7.88956 20.3972Z" fill="#F5F5F5"/>
</g>
<defs>
<clipPath id="clip0">
<rect width="76.4509" height="32" fill="white"/>
</clipPath>
</defs>
</svg>
